{
	"asset":{
		"generator":"Khronos glTF Blender I/O v3.6.27",
		"version":"2.0"
	},
	"extensionsUsed":[
		"KHR_materials_specular",
		"KHR_materials_ior"
	],
	"scene":0,
	"scenes":[
		{
			"name":"Scene",
			"nodes":[
				0
			]
		}
	],
	"nodes":[
		{
			"mesh":0,
			"name":"Object001",
			"scale":[
				0.009999999776482582,
				0.009999999776482582,
				0.009999999776482582
			]
		}
	],
	"materials":[
		{
			"doubleSided":true,
			"extensions":{
				"KHR_materials_specular":{
					"specularColorFactor":[
						0,
						0,
						0
					]
				},
				"KHR_materials_ior":{
					"ior":1.4500000476837158
				}
			},
			"name":"Object001_mtl",
			"pbrMetallicRoughness":{
				"baseColorTexture":{
					"index":0,
					"texCoord":1
				},
				"roughnessFactor":0.858578622341156
			}
		}
	],
	"meshes":[
		{
			"name":"Mesh",
			"primitives":[
				{
					"attributes":{
						"POSITION":0,
						"NORMAL":1,
						"TEXCOORD_0":2,
						"TEXCOORD_1":3
					},
					"indices":4,
					"material":0
				}
			]
		}
	],
	"textures":[
		{
			"sampler":0,
			"source":0
		}
	],
	"images":[
		{
			"bufferView":5,
			"mimeType":"image/jpeg",
			"name":"Object001_2020-05-26_19-16-01_complete.rpf_converted"
		}
	],
	"accessors":[
		{
			"bufferView":0,
			"componentType":5126,
			"count":10084,
			"max":[
				3.8235442638397217,
				57.61711502075195,
				3.8076930046081543
			],
			"min":[
				-3.750122547149658,
				-0.5237810015678406,
				-3.807692527770996
			],
			"type":"VEC3"
		},
		{
			"bufferView":1,
			"componentType":5126,
			"count":10084,
			"type":"VEC3"
		},
		{
			"bufferView":2,
			"componentType":5126,
			"count":10084,
			"type":"VEC2"
		},
		{
			"bufferView":3,
			"componentType":5126,
			"count":10084,
			"type":"VEC2"
		},
		{
			"bufferView":4,
			"componentType":5123,
			"count":45456,
			"type":"SCALAR"
		}
	],
	"bufferViews":[
		{
			"buffer":0,
			"byteLength":121008,
			"byteOffset":0,
			"target":34962
		},
		{
			"buffer":0,
			"byteLength":121008,
			"byteOffset":121008,
			"target":34962
		},
		{
			"buffer":0,
			"byteLength":80672,
			"byteOffset":242016,
			"target":34962
		},
		{
			"buffer":0,
			"byteLength":80672,
			"byteOffset":322688,
			"target":34962
		},
		{
			"buffer":0,
			"byteLength":90912,
			"byteOffset":403360,
			"target":34963
		},
		{
			"buffer":0,
			"byteLength":822254,
			"byteOffset":494272
		}
	],
	"samplers":[
		{
			"magFilter":9729,
			"minFilter":9987
		}
	],
	"buffers":[
		{
			"byteLength":1316528,
			"uri":"data:application/octet-stream;base64,"
		}
	]
}
